<mxfile host="Electron" modified="2023-12-28T09:57:32.862Z" agent="Mozilla/5.0 (Windows NT 10.0; Win64; x64) AppleWebKit/537.36 (KHTML, like Gecko) draw.io/22.1.15 Chrome/120.0.6099.109 Electron/28.1.0 Safari/537.36" etag="eAJQebUGbWVs4kWGtynF" version="22.1.15" type="device">
  <diagram name="第 1 页" id="HOKHkTGxQ62zBUSI4qlc">
    <mxGraphModel dx="714" dy="434" grid="1" gridSize="10" guides="1" tooltips="1" connect="1" arrows="1" fold="1" page="1" pageScale="1" pageWidth="827" pageHeight="1169" math="0" shadow="0">
      <root>
        <mxCell id="0" />
        <mxCell id="1" parent="0" />
        <mxCell id="_LEAKaaO8FQnwaV6Lsqm-1" value="营业员" style="rounded=0;whiteSpace=wrap;html=1;" parent="1" vertex="1">
          <mxGeometry x="334" y="70" width="80" height="40" as="geometry" />
        </mxCell>
        <mxCell id="_LEAKaaO8FQnwaV6Lsqm-5" value="" style="endArrow=none;html=1;rounded=0;entryX=0.33;entryY=-0.017;entryDx=0;entryDy=0;entryPerimeter=0;exitX=0.5;exitY=1;exitDx=0;exitDy=0;" parent="1" edge="1" target="-RqpTXtw88HabC3kvK6E-1" source="_LEAKaaO8FQnwaV6Lsqm-1">
          <mxGeometry width="50" height="50" relative="1" as="geometry">
            <mxPoint x="380" y="120" as="sourcePoint" />
            <mxPoint x="420" y="150" as="targetPoint" />
          </mxGeometry>
        </mxCell>
        <mxCell id="_LEAKaaO8FQnwaV6Lsqm-6" value="" style="endArrow=none;html=1;rounded=0;exitX=0.5;exitY=0;exitDx=0;exitDy=0;entryX=0.424;entryY=1.017;entryDx=0;entryDy=0;entryPerimeter=0;" parent="1" source="-RqpTXtw88HabC3kvK6E-2" edge="1" target="_LEAKaaO8FQnwaV6Lsqm-1">
          <mxGeometry width="50" height="50" relative="1" as="geometry">
            <mxPoint x="314.31999999999994" y="154.64" as="sourcePoint" />
            <mxPoint x="370" y="120" as="targetPoint" />
          </mxGeometry>
        </mxCell>
        <mxCell id="-RqpTXtw88HabC3kvK6E-1" value="姓名" style="ellipse;whiteSpace=wrap;html=1;" vertex="1" parent="1">
          <mxGeometry x="400" y="150" width="80" height="40" as="geometry" />
        </mxCell>
        <mxCell id="-RqpTXtw88HabC3kvK6E-2" value="营业员编号" style="ellipse;whiteSpace=wrap;html=1;" vertex="1" parent="1">
          <mxGeometry x="270" y="150" width="80" height="40" as="geometry" />
        </mxCell>
      </root>
    </mxGraphModel>
  </diagram>
</mxfile>
